# xmcd CD database file
#
# Track frame offsets:
#	150
#	10432
#	22128
#	36441
#	49663
#	68679
#	80108
#	90789
#	103443
#	117155
#	134924
#	156223
#	169105
#	181564
#
# Disc length: 2780 seconds
#
# Revision: 9
# Processed by: cddbd v1.5.2PL0 Copyright (c) Steve Scherf et al.
# Submitted via: CDex 1.79
#
DISCID=bc0ada0e
DTITLE=Van Morrison - Pay The Devil
DYEAR=2006
DGENRE=Country
TTITLE0=There Stands The Glass
TTITLE1=Half As Much
TTITLE2=Things Have Gone To Pieces
TTITLE3=Big Blue Diamonds
TTITLE4=Playhouse
TTITLE5=Your Cheatin' Heart
TTITLE6=My Bucket's Got A Hole In It
TTITLE7=Back Street Affair
TTITLE8=Pay The Devil
TTITLE9=What Am I Living For
TTITLE10=This Has Got To Stop
TTITLE11=Once A Day
TTITLE12=More And More
TTITLE13=Till I Gain Control Again
EXTD=YEAR: 2006
EXTT0=
EXTT1=
EXTT2=
EXTT3=
EXTT4=
EXTT5=
EXTT6=
EXTT7=
EXTT8=
EXTT9=
EXTT10=
EXTT11=
EXTT12=
EXTT13=
PLAYORDER=
